<!DOCTYPE svg PUBLIC "-//W3C//DTD SVG 1.1//EN" "http://www.w3.org/Graphics/SVG/1.1/DTD/svg11.dtd">
<!-- Uploaded to: SVG Repo, www.svgrepo.com, Transformed by: SVG Repo Mixer Tools -->
<svg width="256px" height="256px" viewBox="-7.04 -7.04 78.08 78.08" xmlns="http://www.w3.org/2000/svg" fill="#000000">
<g id="SVGRepo_bgCarrier" stroke-width="0">
<rect x="-7.04" y="-7.04" width="78.08" height="78.08" rx="0" fill="#e0ebfc" strokewidth="0"/>
</g>
<g id="SVGRepo_tracerCarrier" stroke-linecap="round" stroke-linejoin="round"/>
<g id="SVGRepo_iconCarrier"> <defs> <style>.cls-1{fill:#d37b93;}.cls-2{fill:#2d2d2d;}.cls-3{fill:#edcad4;}.cls-4{fill:#9d5b6e;}</style> </defs> <title/> <g id="pig"> <path class="cls-1" d="M55.9,49a11.34,11.34,0,0,1-10.81,8H18.91A11.32,11.32,0,0,1,8.21,42l7.64-22.14A11,11,0,0,0,22,16.74L27.78,11h8.31l5.74,5.74a10.92,10.92,0,0,0,6.33,3.12L55.79,42A11.33,11.33,0,0,1,55.9,49Z"/> <path class="cls-1" d="M55.9,49a11.34,11.34,0,0,1-10.81,8H18.91A11.32,11.32,0,0,1,8.21,42l7.64-22.14A11,11,0,0,0,22,16.74L27.78,11h8.31l5.74,5.74a10.92,10.92,0,0,0,6.33,3.12L55.79,42A11.33,11.33,0,0,1,55.9,49Z"/> <circle class="cls-2" cx="22.5" cy="30.5" r="1.5"/> <circle class="cls-2" cx="41.5" cy="30.5" r="1.5"/> <path class="cls-3" d="M28.39,10.39l-.61.61L22,16.74a11,11,0,0,1-15.56,0l6.35-6.35A11,11,0,0,1,28.39,10.39Z"/> <path class="cls-3" d="M57.39,16.74a11,11,0,0,1-15.56,0L36.09,11l-.61-.61a11,11,0,0,1,15.56,0Z"/> <path class="cls-3" d="M27,38H37a6,6,0,0,1,6,6v0a9,9,0,0,1-9,9H30a9,9,0,0,1-9-9v0A6,6,0,0,1,27,38Z"/> <circle class="cls-4" cx="27" cy="46" r="2"/> <circle class="cls-4" cx="37" cy="46" r="2"/> </g> </g>
</svg>